<svg width="240" height="24" viewBox="0 0 240 24" fill="none" xmlns="http://www.w3.org/2000/svg">
<path d="M29.125 23.1418V0.762885H33.4498V23.1418H29.125ZM32.1713 15.7128V12.2114H37.8351C38.6269 12.2114 39.3108 12.0483 39.8896 11.7248C40.4683 11.4012 40.9155 10.9487 41.2286 10.37C41.5443 9.79124 41.6995 9.1178 41.6995 8.34439C41.6995 7.57362 41.5416 6.89754 41.2286 6.3188C40.9129 5.74006 40.4683 5.28233 39.8896 4.94823C39.3108 4.61414 38.6269 4.44578 37.8351 4.44578H32.1713V0.760254H37.3773C39.1635 0.760254 40.7103 1.02858 42.0204 1.56786C43.3305 2.10714 44.338 2.90686 45.0509 3.97227C45.7612 5.03768 46.1163 6.39246 46.1163 8.03661V8.52327C46.1163 10.1464 45.7559 11.4933 45.0351 12.5587C44.3143 13.6241 43.3042 14.4159 42.0046 14.9341C40.7051 15.4524 39.1635 15.7102 37.3773 15.7102H32.1713V15.7128ZM42.6754 23.1418L35.8857 13.4899H40.7261L47.7605 23.1418H42.6754Z" fill="#2C3C38"/>
<path d="M50.7188 23.1415V0.912598H54.9515V13.8843H54.2201C54.2201 12.2191 54.4332 10.8091 54.8594 9.65159C55.2855 8.49411 55.9195 7.61284 56.7613 7.00253C57.6031 6.39222 58.6738 6.0897 59.9733 6.0897H60.1549C62.0437 6.0897 63.4747 6.73947 64.4481 8.039C65.4214 9.33854 65.9107 11.2273 65.9107 13.7028V23.1415H61.678V13.3055C61.678 12.2691 61.3729 11.4431 60.7652 10.8249C60.1575 10.2067 59.3736 9.89624 58.4213 9.89624C57.3848 9.89624 56.5483 10.2356 55.909 10.9169C55.2698 11.5983 54.9488 12.4848 54.9488 13.5818V23.1415H50.7188Z" fill="#2C3C38"/>
<path d="M77.8485 23.7205C76.428 23.7205 75.1837 23.4759 74.1183 22.9892C73.0529 22.5026 72.169 21.8475 71.4692 21.0241C70.7695 20.2034 70.2407 19.2827 69.8856 18.2699C69.5304 17.2544 69.3516 16.2206 69.3516 15.1631V14.5843C69.3516 13.4874 69.5278 12.4272 69.8856 11.4013C70.2407 10.3753 70.7642 9.46247 71.4534 8.66013C72.1427 7.85778 73.0108 7.21853 74.0578 6.74239C75.1021 6.26624 76.307 6.02686 77.667 6.02686C79.4532 6.02686 80.9501 6.41882 82.1575 7.20012C83.365 7.98142 84.2726 9.00737 84.8829 10.2753C85.4905 11.5433 85.7957 12.9086 85.7957 14.3712V15.9233H71.1509V13.3058H83.1177L81.8392 14.5843C81.8392 13.5294 81.6814 12.6245 81.3683 11.8748C81.0527 11.125 80.5923 10.5463 79.982 10.1385C79.3743 9.73343 78.6009 9.52824 77.667 9.52824C76.7331 9.52824 75.9413 9.74658 75.2916 10.1833C74.6418 10.62 74.1499 11.2329 73.8158 12.0247C73.4817 12.8165 73.3133 13.7715 73.3133 14.8869C73.3133 15.9233 73.4764 16.8414 73.8 17.6411C74.1235 18.4435 74.6234 19.0722 75.2916 19.5299C75.9624 19.9877 76.8147 20.2139 77.8485 20.2139C78.864 20.2139 79.6952 20.0061 80.345 19.5904C80.9948 19.1748 81.4104 18.6618 81.5946 18.0541H85.5221C85.2775 19.1906 84.8118 20.185 84.1226 21.0373C83.4334 21.8896 82.5548 22.5499 81.4893 23.0155C80.4239 23.4812 79.2086 23.7205 77.8485 23.7205Z" fill="#2C3C38"/>
<path d="M94.9588 23.6594C93.0305 23.6594 91.5495 23.0359 90.513 21.7863C89.4765 20.5368 88.9609 18.6664 88.9609 16.1673V6.57861H93.1936V16.5356C93.1936 17.551 93.4777 18.3586 94.046 18.9558C94.6142 19.5556 95.385 19.8528 96.3609 19.8528C97.3343 19.8528 98.1314 19.5372 98.7522 18.9084C99.3704 18.2797 99.6808 17.4274 99.6808 16.3514V6.57861H103.913V23.1438H100.565V16.1094H100.899C100.899 17.7957 100.68 19.1952 100.244 20.3106C99.8071 21.426 99.1678 22.2651 98.326 22.8228C97.4842 23.3805 96.4241 23.6594 95.1429 23.6594H94.9588Z" fill="#2C3C38"/>
<path d="M108.781 23.1412V6.60759H112.13V13.7024H111.825C111.825 12.0372 112.038 10.643 112.464 9.51445C112.89 8.38853 113.524 7.53621 114.366 6.95747C115.208 6.37872 116.258 6.08936 117.518 6.08936H117.699C118.978 6.08936 120.038 6.37872 120.882 6.95747C121.724 7.53621 122.353 8.38853 122.771 9.51445C123.187 10.6404 123.394 12.0372 123.394 13.7024H122.329C122.329 12.0372 122.547 10.643 122.984 9.51445C123.421 8.38853 124.06 7.53621 124.902 6.95747C125.744 6.37872 126.793 6.08936 128.053 6.08936H128.235C129.513 6.08936 130.579 6.37872 131.431 6.95747C132.283 7.53621 132.928 8.38853 133.365 9.51445C133.801 10.6404 134.02 12.0372 134.02 13.7024V23.1412H129.787V13.3368C129.787 12.2819 129.519 11.4453 128.979 10.8245C128.44 10.2063 127.696 9.89589 126.741 9.89589C125.767 9.89589 124.983 10.2168 124.397 10.8561C123.807 11.4953 123.513 12.3634 123.513 13.4604V23.1438H119.28V13.3394C119.28 12.2845 119.012 11.448 118.473 10.8271C117.933 10.2089 117.189 9.89852 116.234 9.89852C115.261 9.89852 114.477 10.2195 113.89 10.8587C113.301 11.498 113.006 12.3661 113.006 13.463V23.1464H108.781V23.1412Z" fill="#2C3C38"/>
<path d="M143.219 23.5675C142.022 23.5675 140.975 23.3544 140.083 22.9282C139.189 22.5021 138.494 21.8918 137.997 21.0999C137.5 20.3081 137.25 19.3532 137.25 18.2378C137.25 17.0198 137.545 16.0254 138.134 15.2547C138.723 14.4839 139.565 13.9051 140.662 13.5184C141.759 13.1344 143.037 12.9397 144.497 12.9397H148.304V15.4967H144.437C143.464 15.4967 142.716 15.7308 142.198 16.1964C141.68 16.6647 141.422 17.2724 141.422 18.0221C141.422 18.7745 141.68 19.3821 142.198 19.8504C142.716 20.3186 143.461 20.5501 144.437 20.5501C145.026 20.5501 145.568 20.4449 146.065 20.2292C146.562 20.0161 146.973 19.6505 147.299 19.1322C147.623 18.614 147.807 17.909 147.846 17.0172L148.883 18.2036C148.78 19.3611 148.501 20.3344 148.046 21.1262C147.588 21.9181 146.96 22.5231 146.157 22.9388C145.355 23.3597 144.376 23.5675 143.219 23.5675ZM148.549 23.1413V18.2378H147.849V12.7871C147.849 11.8532 147.615 11.1482 147.149 10.6721C146.681 10.1959 145.971 9.95655 145.018 9.95655C144.511 9.95655 143.903 9.96707 143.193 9.98812C142.482 10.0092 141.767 10.0328 141.046 10.0644C140.325 10.096 139.681 10.1302 139.112 10.1723V6.57881C139.578 6.53935 140.102 6.49726 140.68 6.4578C141.259 6.41834 141.862 6.39203 142.493 6.38151C143.122 6.37099 143.711 6.36572 144.258 6.36572C145.963 6.36572 147.378 6.58933 148.507 7.03654C149.632 7.48375 150.485 8.18876 151.063 9.15157C151.642 10.117 151.932 11.3692 151.932 12.9134V23.1439H148.549V23.1413Z" fill="#2C3C38"/>
<path d="M166.817 23.7201C164.786 23.7201 163.058 23.3703 161.627 22.6705C160.196 21.9708 159.028 21.0474 158.125 19.9005C157.223 18.7535 156.558 17.5145 156.131 16.186C155.705 14.8575 155.492 13.5632 155.492 12.3032V11.6324C155.492 10.2513 155.711 8.89123 156.147 7.55223C156.584 6.21323 157.252 4.99525 158.157 3.89827C159.059 2.80129 160.217 1.92529 161.629 1.265C163.039 0.604708 164.71 0.275879 166.638 0.275879C168.648 0.275879 170.403 0.641538 171.905 1.37286C173.407 2.10417 174.604 3.1196 175.498 4.41651C176.39 5.71604 176.929 7.23918 177.111 8.9833H172.726C172.583 7.96787 172.234 7.11554 171.676 6.42632C171.118 5.73709 170.408 5.20833 169.545 4.84267C168.682 4.47701 167.714 4.2955 166.638 4.2955C165.562 4.2955 164.597 4.48753 163.745 4.87424C162.892 5.26094 162.182 5.79759 161.614 6.48682C161.045 7.17605 160.614 7.98892 160.319 8.92279C160.025 9.85667 159.877 10.8826 159.877 11.998C159.877 13.095 160.025 14.1104 160.319 15.0417C160.614 15.9755 161.056 16.7937 161.643 17.4934C162.232 18.1932 162.958 18.7377 163.821 19.1218C164.684 19.5085 165.683 19.7005 166.82 19.7005C168.485 19.7005 169.884 19.2901 171.021 18.4668C172.157 17.6434 172.847 16.4938 173.091 15.0101H177.476C177.274 16.5937 176.735 18.0459 175.864 19.3638C174.991 20.6844 173.794 21.7393 172.27 22.5311C170.745 23.3256 168.927 23.7201 166.817 23.7201Z" fill="#7ABAB2"/>
<path d="M178.719 23.1415L186.271 0.912598H193.366L201.161 23.1415H196.683L190.107 3.86681L191.659 4.53762H187.852L189.436 3.86681L183.041 23.1415H178.719ZM184.017 17.2647L185.387 13.5791H194.371L195.742 17.2647H184.017Z" fill="#7ABAB2"/>
<path d="M204.453 23.1418V0.762885H208.778V23.1418H204.453ZM207.499 15.7128V12.2114H213.163C213.955 12.2114 214.639 12.0483 215.218 11.7248C215.796 11.4012 216.244 10.9487 216.557 10.37C216.872 9.79124 217.028 9.1178 217.028 8.34439C217.028 7.57362 216.87 6.89754 216.557 6.3188C216.241 5.74006 215.796 5.28233 215.218 4.94823C214.639 4.61414 213.955 4.44578 213.163 4.44578H207.499V0.760254H212.705C214.492 0.760254 216.038 1.02858 217.349 1.56786C218.659 2.10714 219.666 2.90686 220.379 3.97227C221.089 5.03768 221.444 6.39246 221.444 8.03661V8.52327C221.444 10.1464 221.084 11.4933 220.363 12.5587C219.642 13.6241 218.632 14.4159 217.333 14.9341C216.033 15.4524 214.492 15.7102 212.705 15.7102H207.499V15.7128ZM218.004 23.1418L211.214 13.4899H216.054L223.089 23.1418H218.004Z" fill="#7ABAB2"/>
<path d="M226.375 23.1415V0.912598H230.608V23.1415H226.375ZM229.997 4.56919V0.915229H239.833V4.56919H229.997ZM229.997 13.6738V10.0199H239.284V13.6738H229.997ZM229.997 23.1415V19.4876H240.075V23.1415H229.997Z" fill="#7ABAB2"/>
<path d="M0.304688 2.1572C0.304688 1.20754 0.909735 0.4315 1.67262 0.389409C12.3399 -0.191962 20.8973 1.43114 21.726 5.47181C22.6099 9.7808 14.7495 17.0703 2.28293 23.5811C1.34642 24.0704 0.307319 23.2128 0.307319 21.9501V2.1572H0.304688Z" fill="#7ABAB2"/>
<path d="M21.3208 21.8603C21.3892 22.489 21.0446 23.0704 20.5422 23.1782C16.5252 24.0385 13.2632 23.9332 12.7765 22.439C12.2609 20.858 14.8231 17.6434 19.1558 14.3656C19.7398 13.9236 20.4974 14.363 20.5895 15.2048L21.3208 21.8603Z" fill="#7ABAB2"/>
</svg>
